<svg xmlns="http://www.w3.org/2000/svg" id="svg16" version="1.1" viewBox="0 0 511.39002 218.61">
  <defs id="defs3">
    <clipPath id="clippath">
      <path id="path1" d="M55.82 316.77h58.01v25.4H55.82Z" class="cls-2"/>
    </clipPath>
    <clipPath id="clippath-1">
      <path id="path2" d="M276.98 234h52.55v107.69h-52.55z" class="cls-2"/>
    </clipPath>
    <clipPath id="clippath-2">
      <path id="path3" d="M215.35 222.44H391.8v30.02H215.35Z" class="cls-2"/>
    </clipPath>
    <style id="style3">
      .cls-2,.cls-3,.cls-4,.cls-5{stroke-width:0}.cls-2{fill:none}.cls-3{fill:#99a2a9}.cls-7{mix-blend-mode:multiply}.cls-4{fill:#282827}.cls-5{fill:#001689}
    </style>
  </defs>
  <g id="g16" style="isolation:isolate" transform="translate(-38.7 -174.47)">
    <g id="Layer_1" data-name="Layer 1">
      <path id="path4" d="M361.69 309.06c6.4-.82 12.23-2.38 17.32-4.64 5.16-2.29 9.43-5.53 12.69-9.62 3.31-4.16 4.98-9.64 4.98-16.27 0-6.63-2.28-11.94-6.78-16.12-4.47-4.15-10.79-6.26-18.77-6.26-7.34 0-14.06 1.52-19.98 4.53-5.88 3-10.99 7.06-15.17 12.06-4.17 5-7.41 10.79-9.62 17.22-2.21 6.41-3.33 13.15-3.33 20.03 0 4.36.63 8.5 1.88 12.3 1.27 3.85 3.27 7.29 5.96 10.24 2.7 2.96 6.2 5.32 10.41 7 4.18 1.67 9.23 2.52 15.02 2.52 5.79 0 10.93-.57 15.45-1.7 4.5-1.13 8.04-2.27 10.52-3.41.53-.24.84-.79.78-1.37l-1.51-14.82c-.04-.43-.28-.8-.65-1.02-.37-.22-.82-.25-1.21-.09-6.66 2.74-13.41 4.13-20.06 4.13-10.79 0-16.04-4.06-16.04-12.41v-.8c6.09-.23 12.17-.72 18.1-1.48m-13.5-21.66c1.49-2.75 3.27-5.16 5.29-7.18 1.99-1.99 4.3-3.57 6.85-4.71 2.54-1.13 5.25-1.7 8.07-1.7 3.21 0 5.45.66 6.64 1.97 1.24 1.37 1.84 2.86 1.84 4.54 0 4.51-2.44 7.81-7.45 10.11-5.04 2.31-13.14 3.72-24.1 4.2.68-2.56 1.64-4.98 2.86-7.23m92.37-30.97c-6.21 0-12.03.54-17.29 1.61-5.21 1.06-9.9 2.22-13.96 3.43-.46.14-.81.51-.93.98l-18.15 75.78c-.1.4 0 .83.25 1.15.26.33.65.52 1.06.52h18.41c.63 0 1.17-.43 1.32-1.04l14.98-63.2c2.84-.73 6.22-1.1 10.06-1.1 4.67 0 7.8.99 9.28 2.94 1.56 2.06 2.31 4.72 2.22 7.89-.1 2.03-.39 4.2-.88 6.43-.51 2.32-1.01 4.58-1.51 6.78l-9.36 39.63c-.1.4 0 .83.26 1.15.26.33.65.51 1.06.51h18.28c.63 0 1.17-.43 1.32-1.04l10-41.65c.5-2.49.93-4.98 1.3-7.4.36-2.43.54-4.76.54-6.93 0-7.99-2.31-14.46-6.88-19.24-4.58-4.79-11.78-7.23-21.4-7.23m-329.66 60.4c-.38-.2-.83-.22-1.22-.04-2.95 1.38-6.56 2.75-10.73 4.1-4.08 1.31-9.13 1.98-15.02 1.98-7.43 0-13.13-2.12-16.92-6.29-3.83-4.21-5.77-10.9-5.77-19.89 0-5.89.92-11.75 2.73-17.44 1.81-5.67 4.48-10.79 7.95-15.23 3.45-4.42 7.66-8.05 12.53-10.77 4.82-2.7 10.35-4.06 16.43-4.06 4.49 0 8.56.52 12.11 1.54 3.54 1.02 6.92 2.48 10.04 4.33.33.19.72.24 1.09.13.36-.11.66-.37.83-.71l7.26-15.28c.3-.64.06-1.4-.55-1.76-3.6-2.06-7.85-3.83-12.61-5.26-4.8-1.44-10.5-2.18-16.95-2.18-9.85 0-18.8 1.96-26.62 5.81-7.79 3.85-14.5 9.02-19.94 15.38-5.43 6.35-9.64 13.7-12.5 21.83-2.86 8.12-4.31 16.59-4.31 25.18 0 6.68.97 12.79 2.88 18.15 1.92 5.4 4.74 10.09 8.38 13.94 3.65 3.86 8.14 6.85 13.35 8.88 5.18 2.02 11.14 3.04 17.74 3.04 7.45 0 13.88-.73 19.11-2.17 5.21-1.43 9.58-3.04 12.97-4.79.51-.26.8-.82.72-1.39l-2.27-16.03c-.06-.42-.32-.8-.69-1m82.8-29.22c0-9.37-2.61-17.03-7.76-22.76-5.19-5.77-12.75-8.69-22.49-8.69-7.87 0-14.82 1.74-20.65 5.18-5.78 3.41-10.65 7.81-14.48 13.08-3.81 5.24-6.67 11.14-8.52 17.51-1.84 6.35-2.78 12.58-2.78 18.53 0 9.38 2.61 17.06 7.75 22.83 5.18 5.82 12.75 8.77 22.49 8.77 7.97 0 14.99-1.74 20.87-5.18 5.84-3.41 10.71-7.81 14.49-13.09 3.75-5.25 6.57-11.14 8.37-17.51 1.79-6.35 2.7-12.63 2.7-18.67m-22.47 13.58c-1.07 4.09-2.63 7.87-4.62 11.22-1.97 3.31-4.44 6.07-7.35 8.22-2.82 2.08-6.09 3.14-9.71 3.14-4.4 0-7.34-1.23-9-3.78-1.76-2.68-2.65-6.45-2.65-11.21 0-3.8.54-7.78 1.62-11.83 1.07-4.04 2.63-7.82 4.62-11.23 1.96-3.35 4.44-6.14 7.35-8.29 2.82-2.08 6.09-3.14 9.71-3.14 4.39 0 7.33 1.26 9 3.84 1.76 2.74 2.66 6.54 2.66 11.29 0 3.69-.54 7.65-1.62 11.76m68.02-44.72c-6.21 0-12.03.54-17.29 1.61-5.21 1.06-9.9 2.22-13.96 3.43-.46.14-.81.51-.93.98l-18.15 75.78c-.1.4 0 .83.25 1.15.26.33.65.52 1.06.52h18.41c.63 0 1.17-.43 1.32-1.04l14.98-63.2c2.84-.73 6.22-1.1 10.06-1.1 4.67 0 7.8.99 9.28 2.94 1.56 2.06 2.31 4.72 2.22 7.89-.1 2.03-.39 4.2-.88 6.43-.51 2.32-1.01 4.58-1.51 6.78l-9.36 39.63c-.09.4 0 .83.26 1.15.26.33.65.51 1.06.51h18.28c.63 0 1.17-.43 1.32-1.04l9.99-41.65c.5-2.51.94-5 1.3-7.4.36-2.43.54-4.76.54-6.93 0-7.99-2.31-14.46-6.88-19.24-4.58-4.79-11.78-7.23-21.4-7.23m291.34 2.21c-.26-.33-.65-.51-1.06-.51h-24.17l5.37-22.23c.11-.44-.01-.9-.32-1.24-.31-.33-.76-.49-1.21-.42l-19.06 3.03c-.54.08-.98.49-1.1 1.02l-15.43 65.04c-.72 2.97-1.26 5.79-1.61 8.38-.36 2.61-.54 5.2-.54 7.67 0 6.89 2.01 12.43 5.99 16.45 3.98 4.03 10.56 6.07 19.57 6.07 4.83 0 9.12-.47 12.74-1.4 3.58-.92 6.6-1.91 8.98-2.94.54-.23.86-.78.81-1.37l-1.36-14.67c-.04-.43-.28-.81-.65-1.04-.37-.22-.82-.25-1.22-.09-1.85.78-4.04 1.52-6.49 2.21-2.39.67-4.91 1.01-7.5 1.01-2.35 0-4.2-.25-5.5-.75-1.25-.47-2.19-1.06-2.79-1.75-.61-.69-1-1.48-1.2-2.42-.23-1.05-.35-2.15-.35-3.27s.09-2.45.28-3.83c.19-1.42.52-3.24.99-5.38l7.31-30.28h24.85c.63 0 1.17-.43 1.32-1.04l3.63-15.13c.1-.4 0-.83-.25-1.15m8.22-.31.04-9.62h3.93c.98.02 1.7.11 2.15.28.44.18.8.49 1.07.92.27.45.4.95.4 1.52 0 .72-.21 1.32-.61 1.78-.41.47-1.02.77-1.83.89.41.25.74.52 1 .81.26.29.61.81 1.04 1.57l1.13 1.87h-2.24l-1.32-2.11c-.48-.75-.81-1.22-.99-1.42-.17-.2-.36-.33-.56-.4-.19-.08-.51-.11-.94-.11h-.38l-.01 4.02h-1.87zm1.88-5.55h1.38c.89 0 1.44-.03 1.67-.11.22-.08.39-.22.52-.41.12-.18.19-.42.19-.72 0-.32-.08-.58-.24-.78-.17-.19-.4-.32-.7-.38-.15-.02-.6-.04-1.36-.04h-1.45v2.43z" class="cls-5"/>
      <path id="path5" d="M534.92 253.71c0 4.36 3.4 7.9 7.59 7.9 4.19 0 7.58-3.54 7.58-7.9s-3.4-7.88-7.58-7.88-7.59 3.54-7.59 7.88m.86 0c0-3.85 3.01-6.98 6.73-6.98 3.72 0 6.72 3.13 6.72 6.98 0 3.85-3.01 7-6.72 7s-6.73-3.13-6.73-7" class="cls-5"/>
      <path id="path6" d="M141.3 320.84c-.35-.35-.67-.72-.94-1.14-1.75-2.67-2.64-6.42-2.64-11.14 0-3.78.54-7.74 1.61-11.76s2.61-7.78 4.6-11.17c1.95-3.33 4.41-6.11 7.31-8.24 2.81-2.07 6.05-3.12 9.65-3.12 1.95 0 3.6.27 5 .77-1.74-1.74-4.35-2.61-7.95-2.61-3.6 0-6.85 1.05-9.65 3.12-2.9 2.14-5.35 4.91-7.31 8.24-1.99 3.39-3.53 7.15-4.6 11.17-1.07 4.02-1.61 7.98-1.61 11.76 0 4.72.89 8.47 2.64 11.14.9 1.38 2.2 2.36 3.9 2.98" class="cls-4"/>
      <path id="path7" d="M193.79 287.85c0-9.32-2.6-16.93-7.71-22.63-1.92-2.13-4.17-3.87-6.73-5.22 1.37.99 2.63 2.11 3.78 3.38 5.12 5.7 7.71 13.31 7.71 22.63 0 6-.9 12.25-2.68 18.56-1.79 6.34-4.59 12.19-8.32 17.41-3.76 5.24-8.6 9.62-14.4 13.01-5.85 3.42-12.83 5.15-20.75 5.15-6.04 0-11.24-1.14-15.54-3.4 4.81 3.48 11 5.24 18.49 5.24 7.92 0 14.91-1.73 20.75-5.15 5.8-3.39 10.65-7.77 14.4-13.01 3.73-5.22 6.53-11.07 8.32-17.41 1.78-6.31 2.68-12.56 2.68-18.56" class="cls-4"/>
      <g id="g8" class="cls-7" clip-path="url(#clippath)">
        <path id="path8" d="M110.88 316.93c-.38-.2-.83-.22-1.21-.04-.28.13-.59.26-.88.39l2.09 14.74c.08.57-.21 1.12-.71 1.38-3.37 1.74-7.71 3.34-12.89 4.76-5.21 1.43-11.6 2.15-19 2.15-6.55 0-12.49-1.02-17.63-3.02-1.68-.66-3.28-1.42-4.8-2.27 2.37 1.64 4.95 3.02 7.76 4.11 5.15 2.01 11.08 3.02 17.63 3.02 7.4 0 13.8-.72 19-2.15 5.18-1.42 9.52-3.02 12.89-4.76.51-.26.8-.82.72-1.38l-2.26-15.94c-.06-.42-.32-.79-.69-.99" class="cls-4"/>
      </g>
      <path id="path9" d="M501.87 258.42h3.4l5.39-22.1c.11-.44-.01-.9-.32-1.23-.3-.33-.75-.49-1.2-.42l-1.54.24-5.73 23.5zm-136.31 13.9c-2.8 0-5.5.57-8.03 1.69-2.54 1.13-4.83 2.71-6.81 4.68-2.01 2.01-3.77 4.41-5.26 7.13-1.22 2.24-2.17 4.65-2.85 7.19 1.23-.05 2.41-.12 3.57-.2.6-1.8 1.35-3.53 2.23-5.16 1.48-2.73 3.25-5.13 5.26-7.14 1.98-1.98 4.27-3.55 6.81-4.68 2.52-1.12 5.22-1.69 8.03-1.69 1.53 0 2.82.16 3.9.45-.09-.11-.16-.22-.25-.33-1.18-1.3-3.4-1.96-6.6-1.96" class="cls-4"/>
      <path id="path10" d="M386.93 260.97c4.48 4.16 6.75 9.55 6.75 16.02 0 6.47-1.67 12.04-4.95 16.18-3.23 4.07-7.48 7.28-12.61 9.57-5.06 2.25-10.85 3.8-17.22 4.62-5.9.76-11.94 1.25-17.99 1.47v.8c0 5.3 2.13 8.85 6.46 10.74-2.34-2.04-3.51-4.99-3.51-8.9v-.8c6.05-.22 12.1-.72 18-1.48 6.37-.81 12.16-2.37 17.22-4.62 5.14-2.28 9.38-5.5 12.61-9.57 3.29-4.14 4.95-9.58 4.95-16.17 0-6.59-2.27-11.87-6.75-16.02-1.34-1.25-2.88-2.29-4.55-3.16.55.42 1.09.85 1.6 1.32M129.1 237.53l-7.22 15.3c-.16.34-.46.6-.82.72-.36.11-.75.06-1.08-.13-3.1-1.85-6.46-3.31-9.99-4.33-3.52-1.02-7.57-1.54-12.03-1.54-6.05 0-11.55 1.37-16.34 4.07-4.83 2.73-9.02 6.36-12.45 10.79-3.44 4.45-6.1 9.58-7.9 15.26-1.8 5.69-2.72 11.57-2.72 17.47 0 9 1.93 15.7 5.74 19.92 1.47 1.62 3.22 2.92 5.24 3.92-.82-.63-1.6-1.3-2.29-2.07-3.81-4.21-5.74-10.92-5.74-19.92 0-5.9.91-11.77 2.72-17.47 1.8-5.68 4.46-10.81 7.9-15.26 3.43-4.43 7.62-8.06 12.45-10.79 4.79-2.7 10.28-4.07 16.34-4.07 4.46 0 8.51.52 12.03 1.54 3.52 1.02 6.88 2.48 9.99 4.33.33.19.72.24 1.08.13.36-.11.66-.37.82-.72l7.22-15.3c.3-.64.06-1.41-.55-1.76-.78-.45-1.61-.88-2.45-1.3.2.37.24.81.05 1.21m332.76 26.53c-1.49-1.55-3.27-2.83-5.31-3.88.84.63 1.64 1.3 2.35 2.04 4.54 4.75 6.84 11.19 6.84 19.13 0 2.16-.18 4.47-.54 6.89-.36 2.41-.79 4.88-1.29 7.36l-9.94 41.4c-.15.6-.69 1.03-1.31 1.03h-16.49l-.04.18c-.1.4 0 .82.25 1.14.26.32.64.51 1.06.51h18.17c.62 0 1.16-.43 1.31-1.03l9.94-41.4c.5-2.48.93-4.95 1.29-7.36s.54-4.73.54-6.89c0-7.94-2.3-14.38-6.84-19.13m55.57 56.37c-.37-.22-.82-.25-1.21-.09-.31.13-.65.26-.99.39l1.25 13.47c.05.58-.27 1.13-.8 1.36-2.36 1.03-5.36 2.01-8.92 2.93-3.6.93-7.86 1.4-12.67 1.4-6.21 0-11.23-1-15.06-2.94 4.02 3.16 10.06 4.77 18.01 4.77 4.8 0 9.06-.47 12.67-1.4 3.56-.92 6.56-1.9 8.92-2.93.53-.23.86-.78.8-1.36l-1.35-14.59c-.04-.43-.28-.81-.65-1.03m12.99-61.47c-.26-.32-.64-.51-1.06-.51h-1.69l-3.57 14.86c-.15.6-.69 1.03-1.31 1.03h-24.71l-7.27 30.1c-.46 2.12-.8 3.93-.98 5.35-.18 1.37-.27 2.65-.27 3.81 0 1.16.12 2.2.34 3.25.2.94.59 1.72 1.2 2.4.6.68 1.54 1.27 2.78 1.74.04.02.09.03.13.04-.57-.67-.95-1.43-1.15-2.34-.23-1.04-.34-2.14-.34-3.25 0-1.11.09-2.44.27-3.81.19-1.41.52-3.22.98-5.35l7.27-30.1h24.71c.62 0 1.16-.43 1.31-1.03l3.61-15.04c.1-.4 0-.82-.25-1.15m-289.17 16.8c-1.56-1.76-4.56-2.66-8.98-2.66-3.82 0-7.18.37-10 1.09l-14.9 62.83c-.14.61-.69 1.04-1.31 1.04h-16.62l-.04.18c-.1.4 0 .82.25 1.15.25.32.64.51 1.06.51H209c.62 0 1.17-.43 1.31-1.04l14.9-62.83c2.82-.73 6.18-1.09 10-1.09 2.45 0 4.45.28 6.03.82m201.17 0c-1.56-1.76-4.56-2.66-8.98-2.66-3.82 0-7.18.37-10 1.09l-14.9 62.83c-.14.61-.68 1.04-1.31 1.04H390.6l-.04.18c-.1.4 0 .82.25 1.15.25.32.64.51 1.06.51h18.3c.62 0 1.17-.43 1.31-1.04l14.9-62.83c2.82-.73 6.18-1.09 10-1.09 2.44 0 4.45.28 6.03.82m-187.03-15.55c.84.63 1.64 1.3 2.35 2.05 4.54 4.75 6.84 11.18 6.84 19.12 0 2.16-.18 4.48-.54 6.89-.36 2.39-.79 4.87-1.29 7.36L252.8 337c-.15.6-.69 1.03-1.31 1.03H235l-.04.18c-.09.4 0 .82.25 1.14.25.32.64.51 1.05.51h18.18c.62 0 1.16-.43 1.31-1.03l9.94-41.4c.5-2.49.93-4.97 1.29-7.36.36-2.41.54-4.73.54-6.89 0-7.94-2.3-14.38-6.84-19.13-1.48-1.55-3.27-2.83-5.31-3.88m125.56 59.61c-.37-.22-.81-.25-1.2-.09-.33.14-.66.25-.99.38l1.39 13.63c.06.57-.25 1.12-.78 1.36-2.46 1.13-5.98 2.27-10.46 3.39-4.5 1.13-9.67 1.69-15.36 1.69-5.69 0-10.78-.84-14.94-2.5-1.18-.47-2.3-1-3.36-1.58 1.88 1.34 3.98 2.49 6.31 3.42 4.15 1.66 9.18 2.5 14.93 2.5s10.86-.57 15.36-1.69c4.48-1.12 7.99-2.26 10.46-3.39.52-.24.84-.79.78-1.36l-1.5-14.74c-.04-.42-.28-.8-.65-1.02" class="cls-4"/>
      <path id="path11" d="M316.17 320.26c-.37-.22-.82-.25-1.22-.09-1.85.78-4.04 1.53-6.49 2.21-2.39.67-4.91 1.01-7.5 1.01-2.35 0-4.2-.25-5.5-.74-1.25-.47-2.18-1.06-2.79-1.75-.61-.69-1-1.48-1.21-2.42-.23-1.06-.35-2.16-.35-3.27 0-1.11.09-2.44.28-3.83.19-1.42.52-3.24.99-5.38l7.32-30.28h24.85c.63 0 1.17-.43 1.32-1.04l3.63-15.13c.1-.4 0-.83-.25-1.15-.26-.33-.65-.52-1.06-.52h-24.18l5.37-22.23c.11-.44-.01-.9-.32-1.24-.31-.33-.75-.49-1.21-.42l-19.06 3.02c-.54.09-.98.49-1.1 1.02l-15.43 65.04c-.71 2.96-1.26 5.78-1.61 8.38-.36 2.61-.54 5.19-.54 7.67 0 6.89 2.01 12.43 5.99 16.46 3.98 4.03 10.56 6.07 19.57 6.07 4.83 0 9.12-.47 12.74-1.4 3.58-.92 6.6-1.91 8.98-2.94.54-.23.86-.78.81-1.37l-1.36-14.67c-.04-.43-.28-.81-.65-1.04" class="cls-5"/>
      <g id="g12" class="cls-7" clip-path="url(#clippath-1)">
        <path id="path12" d="M316.17 320.26c-.37-.22-.82-.25-1.22-.09-.26.11-.53.21-.8.32L315.4 334c.05.58-.27 1.13-.81 1.37-2.37 1.03-5.39 2.02-8.98 2.94-3.62.93-7.91 1.4-12.74 1.4-6.64 0-11.95-1.12-15.89-3.32 4.04 3.49 10.29 5.28 18.67 5.28 4.83 0 9.12-.47 12.74-1.4 3.58-.92 6.6-1.91 8.98-2.94.54-.23.86-.78.81-1.37l-1.36-14.67c-.04-.43-.28-.81-.65-1.04m-15.42-62.35h3.26l5.37-22.23c.11-.44-.01-.9-.32-1.24-.31-.33-.76-.49-1.21-.42l-1.38.22-5.71 23.66zm28.49.52c-.26-.33-.65-.52-1.06-.52h-1.54l-3.56 14.83c-.15.61-.69 1.04-1.32 1.04h-24.85l-7.32 30.28c-.47 2.14-.8 3.96-.99 5.38-.18 1.39-.28 2.68-.28 3.83s.12 2.21.35 3.27c.2.94.6 1.73 1.2 2.42.56.64 1.42 1.18 2.53 1.63-.46-.61-.78-1.29-.95-2.09-.23-1.06-.35-2.16-.35-3.27 0-1.11.09-2.44.28-3.83.19-1.42.52-3.24.99-5.38l7.32-30.28h24.85c.63 0 1.17-.43 1.32-1.04l3.63-15.13c.1-.4 0-.83-.25-1.15" class="cls-3"/>
      </g>
      <path id="path13" d="M302.11 224.47c69.85 2.09 89.7 27.99 89.7 27.99s-19.89-45.27-85.54-45.43c-67.67-.15-90.92 42.51-90.92 42.51s33.43-26.68 86.76-25.07" class="cls-5"/>
      <g id="g14" class="cls-7" clip-path="url(#clippath-2)">
        <path id="path14" d="M365.81 223.81c13.57 10 20.28 21.05 22.42 25.09 2.51 2.16 3.58 3.56 3.58 3.56s-6.91-15.71-26-28.65m-66.48-1.3c-38-1.15-65.88 12.06-78.78 19.76-3.59 4.34-5.2 7.28-5.2 7.28s33.43-26.68 86.76-25.07c44.57 1.33 68.78 12.36 80.46 20.17-10.39-7.77-34.78-20.68-83.25-22.13" class="cls-3"/>
      </g>
      <path id="path15" d="M197.77 240.06c.37-.51.63-.96.78-1.35.15-.39.23-.74.23-1.05 0-.31-.07-.57-.22-.79-.14-.22-.34-.42-.58-.6-.52-.38-1.13-.44-1.83-.2-.7.24-1.68.82-2.95 1.73-.56.39-1.15.76-1.77 1.11-.62.35-1.25.6-1.91.76-.66.15-1.34.18-2.05.07-.7-.11-1.42-.43-2.16-.96-.74-.53-1.3-1.15-1.69-1.85-.39-.7-.61-1.46-.66-2.27-.05-.81.08-1.65.38-2.53.3-.88.77-1.78 1.43-2.68.78-1.08 1.56-1.92 2.36-2.54.8-.62 1.52-1.08 2.16-1.39l2.08 3.08c-.55.28-1.11.63-1.68 1.05-.57.42-1.13 1.01-1.69 1.78-.62.86-.95 1.57-.98 2.11-.03.55.19 1 .69 1.36.29.21.59.32.89.33.3 0 .62-.06.97-.2.34-.14.7-.32 1.07-.56.37-.24.77-.5 1.19-.8.91-.61 1.73-1.11 2.48-1.51.74-.4 1.46-.66 2.16-.78.69-.12 1.38-.08 2.06.11.68.19 1.41.56 2.18 1.12 1.49 1.08 2.27 2.43 2.34 4.07.07 1.64-.66 3.51-2.18 5.62-.51.71-1.01 1.31-1.51 1.82s-.96.94-1.4 1.28c-.44.35-.84.63-1.21.85-.36.22-.69.39-.96.51l-2.13-3.08c.6-.29 1.26-.71 1.98-1.26.71-.55 1.44-1.33 2.17-2.35m1.83-20.94c.87-.9 1.69-1.55 2.48-1.95.78-.4 1.54-.6 2.27-.59.73 0 1.44.2 2.13.58.69.38 1.37.89 2.04 1.53l6.34 6.12c-.33.53-.8 1.24-1.42 2.15-.62.9-1.46 1.91-2.53 3.01-.67.7-1.34 1.27-2.01 1.71-.67.45-1.34.74-2.01.88-.67.14-1.34.1-2-.12-.66-.22-1.32-.64-1.97-1.27-.63-.61-1.04-1.25-1.23-1.92-.19-.67-.21-1.35-.06-2.02.15-.67.43-1.34.84-2 .41-.66.9-1.28 1.47-1.86.38-.4.74-.73 1.07-1 .33-.27.61-.48.85-.62l-.29-.28c-.52-.5-1.08-.75-1.7-.73-.62.01-1.3.4-2.05 1.18-.5.52-.96 1.07-1.37 1.64-.41.58-.73 1.11-.95 1.61l-2.83-1.98c.12-.23.27-.51.47-.83.2-.32.42-.67.68-1.03.26-.36.53-.73.84-1.11.3-.38.62-.75.97-1.1m9.12 8.36c.29-.3.56-.59.81-.88.25-.29.44-.52.57-.71l-2.31-2.23c-.15.1-.35.25-.62.47-.26.22-.49.43-.69.64-.28.29-.52.57-.73.86-.21.29-.36.57-.45.85-.09.28-.1.56-.05.82.06.27.21.52.46.76.48.46.96.62 1.46.48.49-.14 1.01-.49 1.55-1.05m15.07-19.06c.74.94 1.27 1.89 1.59 2.87.32.98.43 1.94.34 2.88-.1.95-.41 1.86-.95 2.75-.53.89-1.28 1.71-2.25 2.48-.4.32-.84.63-1.31.94-.47.31-.94.6-1.41.88-.47.27-.93.52-1.38.75-.45.22-.86.41-1.23.55l-12.93-16.42 2.91-3.16 4.61 5.85c.24-.46.53-.89.86-1.29.33-.41.73-.79 1.19-1.15.83-.66 1.69-1.09 2.56-1.31.87-.21 1.73-.22 2.58-.03.85.2 1.69.58 2.5 1.16.82.58 1.59 1.33 2.31 2.25m-3.45 2.59c-1.69-2.14-3.32-2.59-4.9-1.35-.34.27-.65.58-.91.93-.26.35-.45.68-.55.98l4.77 6.05c.19-.1.42-.24.69-.41.27-.18.55-.38.85-.62.91-.72 1.35-1.57 1.31-2.56-.03-.99-.45-2-1.26-3.02m5.98-4.14c-.67-1.15-1.08-2.25-1.23-3.32-.15-1.06-.11-2.05.13-2.96.24-.91.64-1.73 1.22-2.46.57-.73 1.25-1.32 2.04-1.78 1.83-1.07 3.61-1.36 5.33-.86 1.72.5 3.22 1.84 4.49 4.01.12.21.25.45.38.71l.35.7-8.3 4.85c.52.7 1.22 1.1 2.1 1.17.88.08 1.84-.19 2.89-.8.67-.39 1.29-.84 1.87-1.34.57-.5 1.01-.96 1.32-1.38l2.23 2.68c-.14.21-.34.46-.61.75-.27.29-.58.59-.94.9-.36.31-.75.62-1.18.94-.43.32-.87.61-1.33.88-1.16.68-2.27 1.1-3.33 1.26-1.06.16-2.05.11-2.96-.16-.91-.27-1.74-.73-2.49-1.39-.75-.66-1.4-1.47-1.96-2.41m7.75-6.41c-.2-.3-.43-.57-.69-.81-.26-.24-.55-.42-.88-.54-.32-.12-.67-.17-1.04-.15-.37.02-.77.16-1.2.4-.41.24-.72.51-.93.83-.21.31-.35.64-.41.98-.06.34-.06.7.01 1.06.07.37.17.72.31 1.06zm11.99-4.32c-.38-1.01-.58-2.02-.59-3.04-.01-1.02.17-1.98.53-2.88.37-.9.92-1.71 1.66-2.44.74-.73 1.68-1.3 2.81-1.74.74-.28 1.45-.47 2.12-.58.67-.1 1.35-.14 2.02-.11l.38 3.48c-.43 0-.88.03-1.36.09-.48.06-1 .2-1.55.41-1.17.44-1.9 1.14-2.2 2.08-.3.95-.23 2.01.23 3.2.48 1.26 1.12 2.13 1.92 2.62.8.49 1.88.47 3.22-.04.48-.18.97-.42 1.49-.72s.97-.63 1.35-1l1.79 3.03c-.39.37-.9.76-1.54 1.16-.64.4-1.37.76-2.2 1.08-1.28.48-2.45.71-3.51.68-1.07-.03-2.02-.26-2.86-.69-.84-.43-1.57-1.04-2.18-1.83-.61-.79-1.12-1.71-1.52-2.75m27.18-8.53c.29 1.14.39 2.22.3 3.25-.09 1.03-.36 1.96-.82 2.79-.45.83-1.07 1.54-1.85 2.13-.78.59-1.71 1.02-2.79 1.3-1.07.27-2.08.33-3.05.19-.97-.14-1.85-.47-2.64-.98s-1.49-1.19-2.08-2.05c-.59-.86-1.03-1.85-1.32-2.99-.29-1.14-.38-2.22-.26-3.25.12-1.03.41-1.95.88-2.78.46-.82 1.09-1.53 1.87-2.12.78-.59 1.68-1.01 2.71-1.28 1.05-.27 2.05-.33 3.02-.18.97.15 1.85.47 2.64.97s1.48 1.18 2.07 2.02c.59.85 1.03 1.84 1.32 2.98m-6.89-11.48-3.56 4.98-2.31-1.2 2.76-5.46 3.11 1.67zm2.7 12.54c-.32-1.27-.83-2.2-1.52-2.8-.69-.6-1.5-.78-2.44-.54s-1.57.79-1.9 1.64c-.33.86-.33 1.92 0 3.19.32 1.27.84 2.21 1.54 2.82.7.61 1.52.8 2.46.56s1.56-.79 1.88-1.67c.32-.87.31-1.94-.01-3.21m15.91-3.17c-.14-1.36-.42-2.3-.83-2.83-.41-.53-1.04-.75-1.89-.66-.26.03-.54.07-.82.13-.28.06-.55.12-.81.19l1.21 11.48-4.21.45-1.52-14.36c.35-.13.76-.27 1.23-.43.47-.15.97-.3 1.5-.44s1.07-.27 1.63-.37c.56-.11 1.11-.19 1.66-.25 1.07-.11 1.96-.07 2.66.13.7.2 1.28.47 1.76.8.56-.5 1.21-.91 1.97-1.24.76-.33 1.46-.53 2.12-.6 1.19-.13 2.18-.06 2.98.18.8.25 1.46.65 1.97 1.21.52.56.9 1.24 1.16 2.05.26.81.44 1.73.55 2.74l.89 8.4-4.21.45-.83-7.89c-.14-1.36-.42-2.3-.83-2.83-.41-.53-1.04-.75-1.89-.66-.22.02-.54.11-.93.27-.39.16-.71.33-.96.53.18.42.31.87.4 1.35.09.48.16.99.22 1.53l.86 8.11-4.21.45zm30.61-.51c-.02 1.18-.22 2.25-.58 3.22-.36.97-.87 1.79-1.53 2.47-.66.68-1.44 1.2-2.35 1.56-.91.36-1.92.53-3.04.51-1.1-.02-2.1-.23-2.99-.63-.89-.4-1.65-.95-2.28-1.65-.63-.71-1.12-1.55-1.46-2.53-.34-.98-.5-2.06-.48-3.24.02-1.17.23-2.24.62-3.2s.92-1.77 1.58-2.44c.67-.67 1.46-1.18 2.36-1.54.91-.36 1.89-.53 2.95-.51 1.08.02 2.07.23 2.96.63.89.4 1.65.94 2.29 1.64.63.69 1.11 1.53 1.46 2.5.34.97.5 2.05.47 3.22m-4.3-.1c.03-1.31-.21-2.34-.72-3.1-.51-.76-1.24-1.15-2.21-1.17-.97-.02-1.72.34-2.27 1.08s-.83 1.76-.86 3.07c-.03 1.31.22 2.35.73 3.13.51.78 1.26 1.18 2.22 1.2.97.02 1.72-.35 2.25-1.11.54-.76.82-1.79.84-3.1m12.71.75c.18-1.07.52-2.04 1.02-2.93.5-.89 1.14-1.63 1.91-2.22.77-.59 1.66-1.01 2.66-1.27 1-.25 2.1-.28 3.3-.08.78.13 1.49.32 2.12.57.63.25 1.23.56 1.81.92l-1.43 3.19c-.37-.22-.78-.42-1.22-.61-.45-.19-.96-.33-1.54-.43-1.23-.21-2.22.02-2.95.69-.74.66-1.21 1.62-1.42 2.88-.22 1.33-.11 2.4.34 3.23.45.82 1.38 1.36 2.8 1.59.5.08 1.06.13 1.65.13.59 0 1.15-.06 1.67-.18l.02 3.52c-.52.12-1.16.2-1.91.23s-1.57-.03-2.45-.18c-1.35-.22-2.47-.62-3.38-1.18-.9-.56-1.61-1.24-2.12-2.04s-.83-1.69-.97-2.68c-.13-.99-.11-2.04.08-3.14m25.37 12.9c-.75 0-1.7-.07-2.84-.21-1.14-.14-2.31-.39-3.52-.73-1.22-.35-2.19-.81-2.9-1.37-.72-.56-1.23-1.21-1.53-1.93-.3-.73-.44-1.53-.4-2.41.04-.88.2-1.81.48-2.79l2.31-8 4.07 1.17-2.17 7.51c-.38 1.31-.48 2.31-.3 2.99.18.68.74 1.16 1.69 1.43.29.08.61.16.94.23.33.07.64.12.9.16l3.2-11.09 4.07 1.17-4.01 13.88zm7.07 3.38-3.94-1.56 5.49-13.91 3.94 1.56zm7.45-17.78c-.29.72-.74 1.2-1.38 1.43-.63.23-1.26.22-1.9-.03-.63-.25-1.1-.68-1.41-1.27-.3-.6-.31-1.26-.03-1.98.29-.72.74-1.2 1.38-1.43.63-.23 1.26-.22 1.9.03.63.25 1.1.68 1.41 1.27.3.6.31 1.26.03 1.98m7.77 24.64c-.39-.07-.83-.18-1.31-.31-.49-.13-.99-.29-1.5-.47s-1.03-.38-1.55-.59c-.52-.22-1.01-.44-1.46-.67-1.09-.57-1.99-1.23-2.68-1.99-.69-.76-1.18-1.6-1.46-2.5-.28-.9-.36-1.86-.23-2.87.13-1.01.47-2.05 1.01-3.11.56-1.08 1.19-1.98 1.91-2.71s1.49-1.26 2.3-1.61c.82-.35 1.68-.49 2.57-.43.9.06 1.82.33 2.76.82.52.27.96.56 1.32.88.36.31.7.67 1.03 1.07l3.11-6.01 4.08 1.34-9.91 19.17zm-5.25-10.71c-.6 1.16-.82 2.23-.66 3.21.16.98.75 1.73 1.77 2.26.34.17.66.32.95.44.3.12.55.22.75.28l3.54-6.84c-.16-.27-.4-.56-.73-.86-.33-.3-.68-.55-1.07-.75-1.79-.92-3.3-.17-4.56 2.25m21.14 3.49c1.02.72 1.79 1.44 2.31 2.15s.83 1.43.93 2.16c.1.72.02 1.45-.24 2.19-.27.74-.67 1.49-1.2 2.25l-5.08 7.2c-.57-.24-1.35-.6-2.34-1.08-.99-.48-2.11-1.16-3.36-2.04-.79-.56-1.46-1.13-2-1.72-.55-.59-.94-1.21-1.18-1.86-.24-.65-.3-1.31-.19-2 .11-.69.43-1.4.96-2.14.5-.71 1.07-1.21 1.71-1.51.64-.29 1.3-.42 1.98-.37.69.04 1.39.22 2.1.53.71.3 1.4.69 2.07 1.16.45.32.83.62 1.15.9.32.28.57.53.74.75l.23-.32c.42-.59.57-1.19.47-1.79-.11-.61-.6-1.22-1.48-1.85-.59-.42-1.2-.78-1.83-1.1-.63-.32-1.21-.55-1.74-.69l1.53-3.1c.24.08.54.19.89.34.35.14.72.31 1.12.51.39.2.8.42 1.23.66.42.24.83.5 1.24.79m-6.88 10.31c.34.24.67.46.99.67.32.2.58.36.79.45l1.85-2.62c-.12-.13-.31-.31-.56-.54-.26-.23-.5-.42-.73-.59-.33-.23-.64-.43-.96-.59-.31-.16-.62-.27-.91-.31-.29-.04-.57-.02-.82.08-.26.1-.48.29-.68.57-.38.54-.47 1.05-.25 1.51.22.47.64.92 1.28 1.37m20 5.81c-.22-.32-.48-.7-.79-1.12-.31-.42-.68-.83-1.12-1.22-.2-.18-.45-.37-.76-.59-.31-.21-.55-.36-.73-.44l-7.65 8.49-3.15-2.84 9.48-10.52c.74.31 1.58.72 2.5 1.24.93.52 1.86 1.2 2.8 2.05.17.15.36.35.58.58.22.24.43.48.64.73.21.25.41.51.6.77.19.27.34.51.45.73l-2.87 2.12zm8.04-2.47 3.34 2.7-3.28 2.94 3.4 3.79-2.62 2.35-3.4-3.79-3.91 3.51c-.66.59-1.09 1.19-1.27 1.77-.19.59.04 1.23.67 1.94.31.34.65.66 1.04.96.39.3.77.55 1.15.75l-2.06 2.65c-.5-.24-1.01-.55-1.54-.91s-1.1-.88-1.71-1.56c-.77-.86-1.29-1.68-1.57-2.45-.27-.77-.35-1.51-.24-2.23.11-.71.41-1.4.88-2.07.47-.67 1.07-1.32 1.79-1.97l9.35-8.39zm-.56 16.37c1.08-.76 2.15-1.27 3.2-1.51 1.05-.24 2.03-.28 2.96-.12.92.16 1.77.49 2.55 1 .77.51 1.42 1.14 1.95 1.88 1.22 1.74 1.66 3.48 1.3 5.24-.35 1.76-1.56 3.36-3.62 4.81-.2.14-.43.29-.68.44-.25.15-.48.29-.67.4l-5.53-7.86c-.66.58-.99 1.31-.99 2.19 0 .88.34 1.82 1.04 2.81.45.64.94 1.22 1.49 1.75s1.04.93 1.49 1.2l-2.49 2.45c-.22-.12-.49-.3-.8-.55-.31-.24-.64-.53-.97-.86-.34-.33-.68-.7-1.03-1.1-.35-.4-.68-.82-.99-1.25-.77-1.1-1.29-2.17-1.53-3.22-.25-1.04-.28-2.03-.09-2.96.19-.93.58-1.8 1.18-2.6s1.34-1.52 2.24-2.15m7.05 7.21c.28-.22.53-.47.75-.76.22-.28.37-.59.47-.92.09-.33.11-.68.06-1.05s-.22-.76-.5-1.16c-.27-.39-.57-.67-.9-.86-.33-.19-.67-.3-1.01-.33-.35-.03-.7 0-1.06.1-.36.1-.7.23-1.03.39l3.22 4.58z" class="cls-5"/>
      <path id="path16" fill="#889096" stroke-width="0" d="M53.49 366.27c1.27 0 2.42.14 3.44.41 1.02.27 1.88.67 2.59 1.18.71.51 1.25 1.15 1.63 1.89.38.75.58 1.58.58 2.51 0 1.51-.29 2.8-.88 3.84-.59 1.05-1.39 1.9-2.42 2.54-1.03.64-2.24 1.11-3.63 1.39-1.39.28-2.91.42-4.54.42h-1.18l-1.69 7.02H42.7l4.93-20.67c1.09-.2 2.12-.34 3.1-.42.98-.08 1.9-.12 2.77-.12zm-.4 3.96c-.34 0-.64.01-.88.03-.24.02-.48.04-.73.06l-1.45 6.18h1.18c.85 0 1.62-.07 2.32-.2.7-.13 1.29-.35 1.79-.65.5-.3.88-.69 1.15-1.17.27-.47.41-1.05.41-1.74 0-.91-.33-1.55-.98-1.94-.66-.38-1.59-.58-2.8-.58zm23.4 10.38c-.28 1.15-.36 2.31-.24 3.47.12 1.16.35 2.19.7 3.1l-4.03.58c-.12-.24-.23-.47-.33-.7-.1-.22-.2-.47-.3-.76-.57.46-1.19.85-1.88 1.15-.69.3-1.45.45-2.3.45-1.01 0-1.87-.18-2.59-.53-.72-.35-1.3-.83-1.76-1.42-.45-.59-.78-1.29-.98-2.09-.2-.8-.3-1.65-.3-2.56 0-1.39.25-2.7.74-3.94.49-1.24 1.18-2.31 2.06-3.22.88-.92 1.91-1.64 3.1-2.16 1.19-.52 2.48-.79 3.88-.79.18 0 .5.01.95.03.45.02.97.07 1.56.14.59.07 1.2.19 1.85.35.65.16 1.26.38 1.85.67l-1.97 8.23zm-3.15-5.57c-.26-.04-.5-.07-.71-.09-.21-.02-.47-.03-.77-.03-.69 0-1.33.17-1.92.51-.6.34-1.12.79-1.56 1.35-.44.56-.79 1.2-1.04 1.92-.25.73-.38 1.48-.38 2.27 0 .97.16 1.74.48 2.3.32.56.92.85 1.79.85.46 0 .88-.09 1.26-.27.37-.18.77-.48 1.2-.91.04-.5.11-1.03.2-1.59.09-.55.19-1.06.29-1.53l1.18-4.78zm9.69-2.75c.34-.1.72-.22 1.14-.35.41-.13.88-.25 1.39-.36.51-.11 1.09-.2 1.73-.27.64-.07 1.36-.11 2.16-.11 2.38 0 4.02.69 4.9 2.06.89 1.37 1.04 3.25.45 5.63l-2.06 8.6h-4.51l2-8.42c.12-.52.22-1.03.29-1.53.07-.49.06-.93-.02-1.3s-.27-.68-.56-.91c-.29-.23-.74-.35-1.35-.35-.61 0-1.18.06-1.79.18l-2.94 12.32h-4.51l3.66-15.2zm8.93-3.18c-.38 0-.73-.06-1.03-.17-.3-.11-.59-.23-.85-.36-.26-.13-.51-.25-.76-.36-.24-.11-.48-.17-.73-.17-.28 0-.54.08-.77.24-.23.16-.52.5-.86 1l-2.03-1.24c.46-1.09 1.02-1.9 1.66-2.44.64-.54 1.43-.8 2.36-.8.38 0 .73.06 1.03.17.3.11.58.23.85.36.26.13.51.25.76.36.24.11.48.17.73.17.28 0 .54-.08.77-.24.23-.16.52-.49.86-1l2.03 1.24c-.46 1.09-1.02 1.9-1.67 2.44-.65.54-1.43.8-2.36.8zm19.49 11.5c-.28 1.15-.36 2.31-.24 3.47.12 1.16.35 2.19.7 3.1l-4.03.58c-.12-.24-.23-.47-.33-.7-.1-.22-.2-.47-.3-.76-.57.46-1.19.85-1.88 1.15-.69.3-1.45.45-2.3.45-1.01 0-1.87-.18-2.59-.53-.72-.35-1.3-.83-1.76-1.42-.45-.59-.78-1.29-.98-2.09-.2-.8-.3-1.65-.3-2.56 0-1.39.25-2.7.74-3.94.49-1.24 1.18-2.31 2.06-3.22.88-.92 1.91-1.64 3.1-2.16 1.19-.52 2.48-.79 3.88-.79.18 0 .5.01.95.03.45.02.97.07 1.56.14.59.07 1.2.19 1.85.35.65.16 1.26.38 1.85.67l-1.97 8.23zm-3.14-5.57c-.26-.04-.5-.07-.71-.09-.21-.02-.47-.03-.77-.03-.69 0-1.33.17-1.92.51-.6.34-1.12.79-1.56 1.35-.44.56-.79 1.2-1.04 1.92-.25.73-.38 1.48-.38 2.27 0 .97.16 1.74.48 2.3.32.56.92.85 1.79.85.46 0 .88-.09 1.26-.27.37-.18.77-.48 1.2-.91.04-.5.11-1.03.2-1.59.09-.55.19-1.06.29-1.53l1.18-4.78zm12.62 12.75c-1.43 0-2.56-.19-3.38-.56-.82-.37-1.4-.88-1.76-1.53-.35-.65-.52-1.39-.51-2.22.01-.83.13-1.73.35-2.68l3.84-16.07 4.69-.73-4.21 17.44c-.08.36-.13.7-.14 1-.01.3.05.57.17.8.12.23.33.42.62.56.29.14.7.23 1.23.27l-.91 3.72zm3.84-6.54c0-1.29.23-2.54.68-3.75.45-1.21 1.09-2.29 1.92-3.22.83-.94 1.83-1.69 3.01-2.27 1.18-.58 2.49-.86 3.92-.86.71 0 1.36.1 1.97.3.61.2 1.14.49 1.59.88.45.39.81.85 1.06 1.41.25.56.38 1.19.38 1.89 0 1.13-.25 2.09-.76 2.88-.5.79-1.21 1.43-2.1 1.92-.9.49-1.96.85-3.19 1.07-1.23.22-2.57.33-4.03.33.14.85.45 1.45.92 1.8.47.35 1.23.53 2.25.53.65 0 1.3-.06 1.97-.17.67-.11 1.29-.28 1.88-.5l.33 3.54c-.56.22-1.29.42-2.16.61-.87.19-1.83.27-2.86.27-1.25 0-2.31-.18-3.16-.53-.86-.35-1.55-.83-2.09-1.44-.54-.61-.92-1.31-1.17-2.12-.25-.81-.36-1.67-.36-2.57zm8.81-6.54c-1.03 0-1.93.37-2.71 1.1-.78.74-1.29 1.71-1.53 2.92 1.25-.04 2.26-.15 3.03-.32s1.36-.38 1.79-.62c.43-.24.71-.5.85-.79.14-.28.21-.56.21-.85 0-.97-.54-1.45-1.63-1.45zm11.5 9.57c1.03 0 1.74-.15 2.12-.44.38-.29.58-.61.58-.95 0-.22-.04-.41-.11-.58-.07-.16-.19-.31-.35-.45-.16-.14-.38-.29-.67-.44-.29-.15-.65-.33-1.09-.53-.5-.22-.98-.46-1.42-.71-.44-.25-.83-.55-1.17-.91-.33-.35-.6-.76-.79-1.21-.19-.45-.29-.99-.29-1.62 0-1.63.6-2.93 1.8-3.87 1.2-.95 2.95-1.42 5.25-1.42 1.09 0 2.06.12 2.91.36.85.24 1.53.5 2.06.79l-1.54 3.36c-.42-.22-.97-.43-1.63-.64-.67-.2-1.32-.3-1.97-.3-.28 0-.56.02-.83.05-.27.03-.52.1-.76.2-.23.1-.42.24-.56.42-.14.18-.21.42-.21.73 0 .4.16.71.47.91.31.2.75.44 1.32.73.79.38 1.44.74 1.97 1.06.52.32.94.67 1.26 1.03.31.36.54.78.68 1.24.14.46.21 1.01.21 1.63 0 .62-.14 1.28-.41 1.91-.27.63-.7 1.18-1.29 1.66-.59.48-1.33.88-2.24 1.18-.91.3-2 .45-3.27.45-.79 0-1.5-.05-2.13-.15-.64-.1-1.2-.23-1.68-.38s-.89-.31-1.23-.47c-.33-.16-.59-.29-.77-.39l1.54-3.45c.34.2.88.45 1.6.76.72.31 1.6.45 2.63.45zm23.28 3.63c-1.01 0-1.87-.17-2.59-.51-.72-.34-1.3-.81-1.76-1.41-.45-.59-.79-1.29-1-2.09-.21-.8-.32-1.65-.32-2.56 0-1.37.25-2.67.74-3.89.49-1.22 1.18-2.29 2.04-3.19.87-.91 1.9-1.62 3.09-2.15 1.19-.53 2.49-.79 3.91-.79.36 0 .7.02 1.01.06.31.04.63.1.95.18l1.63-6.84 4.69-.73-4 16.62c-.28 1.15-.36 2.31-.24 3.47.12 1.16.35 2.19.7 3.1l-4.03.58c-.12-.24-.23-.47-.33-.7-.1-.22-.2-.47-.3-.76-.57.46-1.2.85-1.89 1.15-.69.3-1.47.45-2.32.45zm5.21-12.74c-.12-.02-.23-.04-.32-.06-.09-.02-.18-.03-.27-.05-.09 0-.21-.02-.35-.02h-.54c-.71 0-1.36.17-1.97.5-.61.33-1.12.78-1.56 1.35-.44.57-.77 1.21-1.01 1.92s-.36 1.45-.36 2.19c0 .97.17 1.73.5 2.29.33.56.93.83 1.8.83.46 0 .89-.09 1.27-.27.38-.18.79-.48 1.21-.91.04-.5.11-1.03.2-1.59.09-.55.19-1.06.29-1.53l1.12-4.66zm6.99 6.08c0-1.29.23-2.54.68-3.75.45-1.21 1.09-2.29 1.92-3.22.83-.94 1.83-1.69 3.01-2.27 1.18-.58 2.49-.86 3.92-.86.71 0 1.36.1 1.97.3.61.2 1.14.49 1.59.88.45.39.81.85 1.06 1.41.25.56.38 1.19.38 1.89 0 1.13-.25 2.09-.76 2.88-.5.79-1.21 1.43-2.1 1.92-.9.49-1.96.85-3.19 1.07-1.23.22-2.57.33-4.03.33.14.85.45 1.45.92 1.8.47.35 1.23.53 2.25.53.65 0 1.3-.06 1.97-.17.67-.11 1.29-.28 1.88-.5l.33 3.54c-.56.22-1.29.42-2.16.61-.87.19-1.83.27-2.86.27-1.25 0-2.31-.18-3.16-.53-.86-.35-1.55-.83-2.09-1.44-.54-.61-.92-1.31-1.17-2.12-.25-.81-.36-1.67-.36-2.57zm8.81-6.54c-1.03 0-1.93.37-2.71 1.1-.78.74-1.29 1.71-1.53 2.92 1.25-.04 2.26-.15 3.03-.32s1.36-.38 1.79-.62c.43-.24.71-.5.85-.79.14-.28.21-.56.21-.85 0-.97-.54-1.45-1.63-1.45zm11.5 9.57c1.03 0 1.74-.15 2.12-.44.38-.29.58-.61.58-.95 0-.22-.04-.41-.11-.58-.07-.16-.19-.31-.35-.45-.16-.14-.38-.29-.67-.44-.29-.15-.65-.33-1.09-.53-.5-.22-.98-.46-1.42-.71-.44-.25-.83-.55-1.17-.91-.33-.35-.6-.76-.79-1.21-.19-.45-.29-.99-.29-1.62 0-1.63.6-2.93 1.8-3.87 1.2-.95 2.95-1.42 5.25-1.42 1.09 0 2.06.12 2.91.36.85.24 1.53.5 2.06.79l-1.54 3.36c-.42-.22-.97-.43-1.63-.64-.67-.2-1.32-.3-1.97-.3-.28 0-.56.02-.83.05-.27.03-.52.1-.76.2-.23.1-.42.24-.56.42-.14.18-.21.42-.21.73 0 .4.16.71.47.91.31.2.75.44 1.32.73.79.38 1.44.74 1.97 1.06.52.32.94.67 1.26 1.03.31.36.54.78.68 1.24.14.46.21 1.01.21 1.63 0 .62-.14 1.28-.41 1.91-.27.63-.7 1.18-1.29 1.66-.59.48-1.33.88-2.24 1.18-.91.3-2 .45-3.27.45-.79 0-1.5-.05-2.13-.15-.64-.1-1.2-.23-1.68-.38s-.89-.31-1.23-.47c-.33-.16-.59-.29-.77-.39l1.54-3.45c.34.2.88.45 1.6.76.72.31 1.6.45 2.63.45zm10.35-3.03c0-1.29.23-2.54.68-3.75.45-1.21 1.09-2.29 1.92-3.22.83-.94 1.83-1.69 3.01-2.27 1.18-.58 2.49-.86 3.92-.86.71 0 1.36.1 1.97.3.61.2 1.14.49 1.59.88.45.39.81.85 1.06 1.41.25.56.38 1.19.38 1.89 0 1.13-.25 2.09-.76 2.88-.5.79-1.21 1.43-2.1 1.92-.9.49-1.96.85-3.19 1.07-1.23.22-2.57.33-4.03.33.14.85.45 1.45.92 1.8.47.35 1.23.53 2.25.53.65 0 1.3-.06 1.97-.17.67-.11 1.29-.28 1.88-.5l.33 3.54c-.56.22-1.29.42-2.16.61-.87.19-1.83.27-2.86.27-1.25 0-2.31-.18-3.16-.53-.86-.35-1.55-.83-2.09-1.44-.54-.61-.92-1.31-1.17-2.12-.25-.81-.36-1.67-.36-2.57zm8.81-6.54c-1.03 0-1.93.37-2.71 1.1-.78.74-1.29 1.71-1.53 2.92 1.25-.04 2.26-.15 3.03-.32s1.36-.38 1.79-.62c.43-.24.71-.5.85-.79.14-.28.21-.56.21-.85 0-.97-.54-1.45-1.63-1.45zm7.24 6.42c0-1.37.22-2.66.67-3.87.45-1.21 1.08-2.27 1.91-3.18.83-.91 1.83-1.62 3.01-2.15 1.18-.52 2.5-.79 3.95-.79.91 0 1.72.09 2.44.26s1.37.4 1.95.68l-1.54 3.51c-.4-.16-.82-.31-1.26-.44-.43-.13-.96-.2-1.59-.2-1.51 0-2.7.51-3.57 1.53-.87 1.02-1.3 2.41-1.3 4.16 0 1.03.22 1.86.67 2.5.44.64 1.26.95 2.45.95.58 0 1.15-.06 1.7-.18s1.03-.27 1.45-.45l.33 3.6c-.56.22-1.19.42-1.86.59-.68.17-1.5.26-2.47.26-1.25 0-2.31-.18-3.18-.54-.87-.36-1.58-.85-2.15-1.47-.56-.62-.97-1.34-1.23-2.16-.26-.82-.38-1.7-.38-2.6zm24.37-9.84c.87 0 1.61.13 2.24.38.63.25 1.14.61 1.54 1.06.4.45.71.99.91 1.62.2.63.3 1.3.3 2.03 0 .85-.1 1.69-.3 2.51l-2.06 8.6h-4.51l2-8.42c.08-.34.16-.71.23-1.09.07-.38.11-.75.11-1.09 0-.52-.14-.97-.41-1.35-.27-.37-.79-.56-1.56-.56-.32 0-.63.02-.92.06-.29.04-.58.09-.86.15l-2.94 12.29h-4.51l5.45-22.76 4.69-.73-1.85 7.6c.4-.08.81-.15 1.23-.21.41-.06.82-.09 1.23-.09zm21.28 9.32c-.28 1.15-.36 2.31-.24 3.47.12 1.16.35 2.19.7 3.1l-4.03.58c-.12-.24-.23-.47-.33-.7-.1-.22-.2-.47-.3-.76-.57.46-1.19.85-1.88 1.15-.69.3-1.45.45-2.3.45-1.01 0-1.87-.18-2.59-.53-.72-.35-1.3-.83-1.76-1.42-.45-.59-.78-1.29-.98-2.09-.2-.8-.3-1.65-.3-2.56 0-1.39.25-2.7.74-3.94.49-1.24 1.18-2.31 2.06-3.22.88-.92 1.91-1.64 3.1-2.16 1.19-.52 2.48-.79 3.88-.79.18 0 .5.01.95.03.45.02.97.07 1.56.14.59.07 1.2.19 1.85.35.65.16 1.26.38 1.85.67l-1.97 8.23zm-3.15-5.57c-.26-.04-.5-.07-.71-.09-.21-.02-.47-.03-.77-.03-.69 0-1.33.17-1.92.51-.6.34-1.12.79-1.56 1.35-.44.56-.79 1.2-1.04 1.92-.25.73-.38 1.48-.38 2.27 0 .97.16 1.74.48 2.3.32.56.92.85 1.79.85.46 0 .88-.09 1.26-.27.37-.18.77-.48 1.2-.91.04-.5.11-1.03.2-1.59.09-.55.19-1.06.29-1.53l1.18-4.78zm16.59-3.81c.97 0 1.81.17 2.51.51.71.34 1.29.81 1.76 1.39.46.59.81 1.27 1.03 2.06.22.79.33 1.63.33 2.54 0 1.39-.26 2.71-.77 3.95-.51 1.24-1.22 2.32-2.1 3.24-.89.92-1.94 1.65-3.15 2.18-1.21.53-2.52.8-3.94.8-.18 0-.5 0-.95-.02-.45-.01-.97-.06-1.56-.14-.59-.08-1.21-.2-1.86-.36-.65-.16-1.28-.38-1.86-.67l5.24-22.01 4.69-.73-1.88 7.81c.4-.18.81-.32 1.21-.42.4-.1.84-.15 1.3-.15zm-3.94 12.96c.71 0 1.37-.17 2-.51.63-.34 1.17-.8 1.62-1.38.45-.58.81-1.23 1.07-1.95.26-.73.39-1.48.39-2.27 0-.97-.16-1.73-.48-2.27-.32-.54-.92-.82-1.79-.82-.28 0-.65.05-1.1.15-.45.1-.86.31-1.23.64l-2 8.29c.12.02.23.04.32.06.09.02.19.04.29.05.1.01.22.02.36.02h.54zm17.38 3.6c-1.43 0-2.56-.19-3.38-.56-.82-.37-1.4-.88-1.76-1.53-.35-.65-.52-1.39-.51-2.22.01-.83.13-1.73.35-2.68l3.84-16.07 4.69-.73-4.21 17.44c-.08.36-.13.7-.14 1-.01.3.05.57.17.8.12.23.33.42.62.56.29.14.7.23 1.23.27l-.91 3.72zm3.84-6.54c0-1.29.23-2.54.68-3.75.45-1.21 1.09-2.29 1.92-3.22.83-.94 1.83-1.69 3.01-2.27 1.18-.58 2.49-.86 3.92-.86.71 0 1.36.1 1.97.3.61.2 1.14.49 1.59.88.45.39.81.85 1.06 1.41.25.56.38 1.19.38 1.89 0 1.13-.25 2.09-.76 2.88-.5.79-1.21 1.43-2.1 1.92-.9.49-1.96.85-3.19 1.07-1.23.22-2.57.33-4.03.33.14.85.45 1.45.92 1.8.47.35 1.23.53 2.25.53.65 0 1.3-.06 1.97-.17.67-.11 1.29-.28 1.88-.5l.33 3.54c-.56.22-1.29.42-2.16.61-.87.19-1.83.27-2.86.27-1.25 0-2.31-.18-3.16-.53-.86-.35-1.55-.83-2.09-1.44-.54-.61-.92-1.31-1.17-2.12-.25-.81-.36-1.67-.36-2.57zm8.81-6.54c-1.03 0-1.93.37-2.71 1.1-.78.74-1.29 1.71-1.53 2.92 1.25-.04 2.26-.15 3.03-.32s1.36-.38 1.79-.62c.43-.24.71-.5.85-.79.14-.28.21-.56.21-.85 0-.97-.54-1.45-1.63-1.45zm11.5 9.57c1.03 0 1.74-.15 2.12-.44.38-.29.58-.61.58-.95 0-.22-.04-.41-.11-.58-.07-.16-.19-.31-.35-.45-.16-.14-.38-.29-.67-.44-.29-.15-.65-.33-1.09-.53-.5-.22-.98-.46-1.42-.71-.44-.25-.83-.55-1.17-.91-.33-.35-.6-.76-.79-1.21-.19-.45-.29-.99-.29-1.62 0-1.63.6-2.93 1.8-3.87 1.2-.95 2.95-1.42 5.25-1.42 1.09 0 2.06.12 2.91.36.85.24 1.53.5 2.06.79l-1.54 3.36c-.42-.22-.97-.43-1.63-.64-.67-.2-1.32-.3-1.97-.3-.28 0-.56.02-.83.05-.27.03-.52.1-.76.2-.23.1-.42.24-.56.42-.14.18-.21.42-.21.73 0 .4.16.71.47.91.31.2.75.44 1.32.73.79.38 1.44.74 1.97 1.06.52.32.94.67 1.26 1.03.31.36.54.78.68 1.24.14.46.21 1.01.21 1.63 0 .62-.14 1.28-.41 1.91-.27.63-.7 1.18-1.29 1.66-.59.48-1.33.88-2.24 1.18-.91.3-2 .45-3.27.45-.79 0-1.5-.05-2.13-.15-.64-.1-1.2-.23-1.68-.38s-.89-.31-1.23-.47c-.33-.16-.59-.29-.77-.39l1.54-3.45c.34.2.88.45 1.6.76.72.31 1.6.45 2.63.45zm33-6.51c0 1.47-.24 2.82-.73 4.04-.48 1.22-1.16 2.28-2.01 3.16-.86.89-1.89 1.58-3.09 2.07-1.2.49-2.51.74-3.92.74-.69 0-1.37-.06-2.06-.18l-1.36 5.48h-4.48l5.02-20.95c.81-.24 1.73-.46 2.77-.65s2.16-.29 3.38-.29c1.13 0 2.1.17 2.92.51.82.34 1.49.81 2.01 1.41.52.6.91 1.29 1.17 2.09.25.8.38 1.65.38 2.56zm-10.99 6.2c.34.08.77.12 1.27.12.79 0 1.5-.15 2.15-.44.65-.29 1.2-.7 1.65-1.23.45-.52.81-1.16 1.06-1.89.25-.74.38-1.55.38-2.44 0-.89-.19-1.6-.58-2.21-.38-.61-1.05-.91-2-.91-.65 0-1.25.06-1.82.18l-2.12 8.81zm27.12-3.36c-.28 1.15-.36 2.31-.24 3.47.12 1.16.35 2.19.7 3.1l-4.03.58c-.12-.24-.23-.47-.33-.7-.1-.22-.2-.47-.3-.76-.57.46-1.19.85-1.88 1.15-.69.3-1.45.45-2.3.45-1.01 0-1.87-.18-2.59-.53-.72-.35-1.3-.83-1.76-1.42-.45-.59-.78-1.29-.98-2.09-.2-.8-.3-1.65-.3-2.56 0-1.39.25-2.7.74-3.94.49-1.24 1.18-2.31 2.06-3.22.88-.92 1.91-1.64 3.1-2.16 1.19-.52 2.48-.79 3.88-.79.18 0 .5.01.95.03.45.02.97.07 1.56.14.59.07 1.2.19 1.85.35.65.16 1.26.38 1.85.67l-1.97 8.23zm-3.15-5.57c-.26-.04-.5-.07-.71-.09-.21-.02-.47-.03-.77-.03-.69 0-1.33.17-1.92.51-.6.34-1.12.79-1.56 1.35-.44.56-.79 1.2-1.04 1.92-.25.73-.38 1.48-.38 2.27 0 .97.16 1.74.48 2.3.32.56.92.85 1.79.85.46 0 .88-.09 1.26-.27.37-.18.77-.48 1.2-.91.04-.5.11-1.03.2-1.59.09-.55.19-1.06.29-1.53l1.18-4.78zm18.19.4c-.4-.1-.8-.2-1.2-.29-.4-.09-.97-.14-1.74-.14-.28 0-.6.03-.94.08-.34.05-.63.11-.85.17l-2.94 12.23h-4.51l3.63-15.07c.87-.28 1.84-.55 2.92-.8 1.08-.25 2.3-.38 3.65-.38.5 0 1.06.05 1.68.14.62.09 1.15.24 1.62.44l-1.33 3.63zm15.17 5.17c-.28 1.15-.36 2.31-.24 3.47.12 1.16.35 2.19.7 3.1l-4.03.58c-.12-.24-.23-.47-.33-.7-.1-.22-.2-.47-.3-.76-.57.46-1.19.85-1.88 1.15-.69.3-1.45.45-2.3.45-1.01 0-1.87-.18-2.59-.53-.72-.35-1.3-.83-1.76-1.42-.45-.59-.78-1.29-.98-2.09-.2-.8-.3-1.65-.3-2.56 0-1.39.25-2.7.74-3.94.49-1.24 1.18-2.31 2.06-3.22.88-.92 1.91-1.64 3.1-2.16 1.19-.52 2.48-.79 3.88-.79.18 0 .5.01.95.03.45.02.97.07 1.56.14.59.07 1.2.19 1.85.35.65.16 1.26.38 1.85.67l-1.97 8.23zm-3.15-5.57c-.26-.04-.5-.07-.71-.09-.21-.02-.47-.03-.77-.03-.69 0-1.33.17-1.92.51-.6.34-1.12.79-1.56 1.35-.44.56-.79 1.2-1.04 1.92-.25.73-.38 1.48-.38 2.27 0 .97.16 1.74.48 2.3.32.56.92.85 1.79.85.46 0 .88-.09 1.26-.27.37-.18.77-.48 1.2-.91.04-.5.11-1.03.2-1.59.09-.55.19-1.06.29-1.53l1.18-4.78zm28.21 5.57c-.28 1.15-.36 2.31-.24 3.47.12 1.16.35 2.19.7 3.1l-4.03.58c-.12-.24-.23-.47-.33-.7-.1-.22-.2-.47-.3-.76-.57.46-1.19.85-1.88 1.15-.69.3-1.45.45-2.3.45-1.01 0-1.87-.18-2.59-.53-.72-.35-1.3-.83-1.76-1.42-.45-.59-.78-1.29-.98-2.09-.2-.8-.3-1.65-.3-2.56 0-1.39.25-2.7.74-3.94.49-1.24 1.18-2.31 2.06-3.22.88-.92 1.91-1.64 3.1-2.16 1.19-.52 2.48-.79 3.88-.79.18 0 .5.01.95.03.45.02.97.07 1.56.14.59.07 1.2.19 1.85.35.65.16 1.26.38 1.85.67l-1.97 8.23zm-3.14-5.57c-.26-.04-.5-.07-.71-.09-.21-.02-.47-.03-.77-.03-.69 0-1.33.17-1.92.51-.6.34-1.12.79-1.56 1.35-.44.56-.79 1.2-1.04 1.92-.25.73-.38 1.48-.38 2.27 0 .97.16 1.74.48 2.3.32.56.92.85 1.79.85.46 0 .88-.09 1.26-.27.37-.18.77-.48 1.2-.91.04-.5.11-1.03.2-1.59.09-.55.19-1.06.29-1.53l1.18-4.78zm12.59 12.87c-1.01 0-1.87-.17-2.59-.51-.72-.34-1.3-.81-1.76-1.41-.45-.59-.79-1.29-1-2.09-.21-.8-.32-1.65-.32-2.56 0-1.37.25-2.67.74-3.89.49-1.22 1.18-2.29 2.04-3.19.87-.91 1.9-1.62 3.09-2.15 1.19-.53 2.49-.79 3.91-.79.36 0 .7.02 1.01.06.31.04.63.1.95.18l1.63-6.84 4.69-.73-4 16.62c-.28 1.15-.36 2.31-.24 3.47.12 1.16.35 2.19.7 3.1l-4.03.58c-.12-.24-.23-.47-.33-.7-.1-.22-.2-.47-.3-.76-.57.46-1.2.85-1.89 1.15-.69.3-1.47.45-2.32.45zm5.21-12.74c-.12-.02-.23-.04-.32-.06-.09-.02-.18-.03-.27-.05-.09 0-.21-.02-.35-.02h-.54c-.71 0-1.36.17-1.97.5-.61.33-1.12.78-1.56 1.35-.44.57-.77 1.21-1.01 1.92s-.36 1.45-.36 2.19c0 .97.17 1.73.5 2.29.33.56.93.83 1.8.83.46 0 .89-.09 1.27-.27.38-.18.79-.48 1.21-.91.04-.5.11-1.03.2-1.59.09-.55.19-1.06.29-1.53l1.12-4.66zm22.76-3.61-2.15 9.05c-.28 1.15-.36 2.31-.24 3.47.12 1.16.35 2.19.7 3.1l-4.03.58c-.22-.44-.43-.94-.64-1.48-.57.44-1.2.82-1.91 1.12-.71.3-1.49.45-2.36.45-1.19 0-2.15-.22-2.89-.65-.74-.43-1.29-1.01-1.65-1.73-.36-.72-.56-1.54-.59-2.47-.03-.93.08-1.88.32-2.85l2.06-8.6h4.51l-2.03 8.54c-.1.44-.19.9-.26 1.36-.07.46-.08.89-.02 1.29s.22.72.47.97c.25.25.65.38 1.2.38.46 0 .89-.09 1.29-.26s.81-.47 1.26-.89c.04-.5.11-1.03.2-1.59.09-.55.19-1.06.29-1.53l1.97-8.26h4.51zm7.51 16.23c-1.43 0-2.56-.19-3.38-.56-.82-.37-1.4-.88-1.76-1.53-.35-.65-.52-1.39-.51-2.22.01-.83.13-1.73.35-2.68l3.84-16.07 4.69-.73-4.21 17.44c-.08.36-.13.7-.14 1-.01.3.05.57.17.8.12.23.33.42.62.56.29.14.7.23 1.23.27l-.91 3.72zm6.99-20.19 4.69-.73-1.15 4.69h5.02l-.91 3.69h-5l-1.33 5.57c-.12.46-.2.9-.23 1.3s.02.75.15 1.04c.13.29.36.52.68.68.32.16.77.24 1.33.24.48 0 .95-.05 1.41-.14.46-.09.91-.22 1.38-.38l.33 3.45c-.61.22-1.26.41-1.97.58-.71.16-1.54.24-2.51.24-1.39 0-2.47-.21-3.24-.62-.77-.41-1.31-.98-1.63-1.7-.32-.72-.46-1.54-.42-2.47.04-.93.18-1.91.42-2.94l2.97-12.53zm15.01 20.31c-1.07 0-2-.16-2.78-.48-.78-.32-1.44-.78-1.95-1.36-.51-.58-.9-1.28-1.17-2.07-.27-.79-.39-1.68-.39-2.65 0-1.21.2-2.42.59-3.63.39-1.21.97-2.3 1.74-3.27.77-.97 1.71-1.76 2.82-2.38 1.11-.62 2.38-.92 3.81-.92 1.05 0 1.97.16 2.77.48.8.32 1.45.78 1.97 1.36.52.58.9 1.28 1.17 2.07.26.8.39 1.68.39 2.65 0 1.21-.19 2.42-.58 3.63-.38 1.21-.95 2.3-1.7 3.27-.75.97-1.68 1.76-2.8 2.38-1.12.62-2.42.92-3.89.92zm2.24-12.96c-.67 0-1.25.19-1.76.58-.5.38-.93.87-1.27 1.45-.34.59-.6 1.23-.77 1.92-.17.7-.26 1.36-.26 1.98 0 1.03.16 1.82.48 2.38.32.56.91.83 1.76.83.67 0 1.25-.19 1.76-.58.5-.38.93-.87 1.27-1.45.34-.58.6-1.23.77-1.92.17-.7.26-1.36.26-1.98 0-1.03-.16-1.82-.48-2.38-.32-.55-.91-.83-1.76-.83zm13.11 9.33c1.03 0 1.74-.15 2.12-.44.38-.29.58-.61.58-.95 0-.22-.04-.41-.11-.58-.07-.16-.19-.31-.35-.45-.16-.14-.38-.29-.67-.44-.29-.15-.65-.33-1.09-.53-.5-.22-.98-.46-1.42-.71-.44-.25-.83-.55-1.17-.91-.33-.35-.6-.76-.79-1.21-.19-.45-.29-.99-.29-1.62 0-1.63.6-2.93 1.8-3.87 1.2-.95 2.95-1.42 5.25-1.42 1.09 0 2.06.12 2.91.36.85.24 1.53.5 2.06.79l-1.54 3.36c-.42-.22-.97-.43-1.63-.64-.67-.2-1.32-.3-1.97-.3-.28 0-.56.02-.83.05-.27.03-.52.1-.76.2-.23.1-.42.24-.56.42-.14.18-.21.42-.21.73 0 .4.16.71.47.91.31.2.75.44 1.32.73.79.38 1.44.74 1.97 1.06.52.32.94.67 1.26 1.03.31.36.54.78.68 1.24.14.46.21 1.01.21 1.63 0 .62-.14 1.28-.41 1.91-.27.63-.7 1.18-1.29 1.66-.59.48-1.33.88-2.24 1.18-.91.3-2 .45-3.27.45-.79 0-1.5-.05-2.13-.15-.64-.1-1.2-.23-1.68-.38s-.89-.31-1.23-.47c-.33-.16-.59-.29-.77-.39l1.54-3.45c.34.2.88.45 1.6.76.72.31 1.6.45 2.63.45z"/>
    </g>
  </g>
</svg>
